<svg xmlns="http://www.w3.org/2000/svg" width="1900" height="425">
  <path fill="#bdbdbd" d="M106.68 209c0-36.15 30.4-65.6 66.56-65.6 20 0 34.25 7.85 44.97 18.1l-12.6 12.63c-7.7-7.2-18.1-12.8-32.3-12.8-26.4 0-47 21.28-47 47.68s20.7 47.7 47.1 47.7c17.1 0 26.9-6.9 33.1-13.1 5.2-5.1 8.5-12.5 9.8-22.5h-42.9v-17.9h60.4c.7 3.2 1 7.1 1 11.2 0 13.5-3.6 30.1-15.5 41.9-11.5 12-26.2 18.4-45.7 18.4-36.1 0-66.5-29.4-66.5-65.6M283.3 258c-12.8 0-23.84-10.57-23.84-25.6 0-15.2 11.04-25.6 23.84-25.6s23.84 10.4 23.84 25.6c0 15.03-11.04 25.6-23.84 25.6m0-67.85c-23.36 0-42.4 17.76-42.4 42.24 0 24.3 19.04 42.2 42.4 42.2s42.4-18 42.4-42.3c0-24.5-19.04-42.3-42.4-42.3m92.5 67.9c-12.8 0-23.85-10.6-23.85-25.6 0-15.2 11.05-25.6 23.85-25.6s23.84 10.4 23.84 25.6c0 15-11.04 25.6-23.84 25.6m0-67.9c-23.37 0-42.4 17.7-42.4 42.2 0 24.3 19.03 42.2 42.4 42.2 23.36 0 42.4-18 42.4-42.3 0-24.5-19.04-42.3-42.4-42.3m92.25 67.9c-12.8 0-23.52-10.7-23.52-25.5 0-14.9 10.74-25.8 23.54-25.8 12.64 0 22.56 10.8 22.56 25.7 0 14.7-9.93 25.4-22.57 25.4m21.28-65.3v6.8h-.62c-4.16-5-12.16-9.5-22.24-9.5-21.12 0-40.48 18.5-40.48 42.4 0 23.7 19.36 42.1 40.48 42.1 10.08 0 18.08-4.5 22.24-9.6h.64v6.1c0 16.1-8.63 24.8-22.55 24.8-11.3 0-18.4-8.2-21.2-15.1l-16.1 6.7c4.7 11.2 17 24.9 37.5 24.9 21.8 0 40.2-12.8 40.2-44V192h-17.6zm48.98 79.4h-18.56v-124h18.56V272zm49.44-65.6c7.36 0 13.6 3.6 15.68 8.9l-37.76 16c-.48-16.3 12.64-24.7 22.08-24.7m1.44 51.5c-9.44 0-16.16-4.4-20.48-12.8l56.48-23.4-1.92-4.8c-3.52-9.5-14.24-26.9-36.16-26.9-21.76 0-39.84 17.1-39.84 42.2 0 23.7 17.92 42.3 41.92 42.3 19.36 0 30.56-11.8 35.2-18.7L610 246c-4.8 7-11.36 11.7-20.8 11.7"/>
  <path fill="#ffd500" d="M801.98 317.67h-106.2V105.25h106.2v212.42zm197.24-216.2c-60.75 0-110 49.24-110 110s49.25 110 110 110c60.76 0 110-49.26 110-110s-49.24-110-110-110"/>
  <path fill="#1ce8b5" d="M829.12 363.97l-15.3-3.47 66.7-294.9 15.3 3.45-66.7 294.92z"/>
  <path fill="#bdbdbd" d="M1240.8 130.03h-48.08v33.48h43.36v12.7h-43.36v33.5h48.08v13h-61.65V117.1h61.65v12.96zm71.7 92.63h-15.94l-17.85-26.7-17.5 26.7h-15.9l25.5-36.73-24.9-35.55h15.4l17.8 25.52 17-25.52h15.9l-25.2 35.55 25.8 36.73zm37.75 1.18c-7.58 0-13.35-2.02-17.33-6.05-4-4.1-5.98-9.8-5.98-17.2v-37.9h-12.68v-12.4h12.68v-22.1h13.57v22.1h17.7v12.4h-17.7v36.8c0 7.8 3.3 11.8 9.8 11.8 2.5 0 4.5-.4 6.2-1.2l4.7 11.6c-2.9 1.3-6.6 1.9-10.9 1.9m69.5-46c-.3-4.2-2.2-8.1-5.7-11.8-3.5-3.8-8.7-5.6-15.5-5.6-5 0-9.3 1.5-13 4.7-3.7 3.1-6.2 7.4-7.6 12.7h41.9zm-19.5 47.2c-10.9 0-19.8-3.7-26.6-11-6.8-7.3-10.2-16.5-10.2-27.6 0-10.5 3.3-19.6 10-27.2 6.7-7.6 15.1-11.4 25.5-11.4 10.7 0 19.3 3.5 25.8 10.4 6.5 7 9.7 16.3 9.7 28l-.1 2.5H1377c.4 7.3 2.85 13 7.3 17.3 4.5 4.2 9.73 6.3 15.73 6.3 9.7 0 16.3-4.1 19.74-12.4l12.1 5c-2.37 5.6-6.25 10.3-11.66 14.1-5.4 3.7-12 5.6-19.9 5.6m56.3-74.7V160h.6c2-3.4 5.1-6.34 9.3-8.75 4.2-2.4 8.8-3.6 13.6-3.6 9 0 15.8 2.73 20.5 8.23 4.8 5.5 7.1 12.9 7.1 22.1v44.26h-13.6v-42.2c0-13.3-5.9-20-17.8-20-5.6 0-10.1 2.25-13.7 6.7-3.5 4.5-5.3 9.7-5.3 15.6v39.95h-13.6v-72.2h13zm96.5 62.3c6.4 0 11.8-2.4 16.3-7.1 4.5-4.7 6.7-11.1 6.7-19 0-8-2.2-14.3-6.7-19.1s-9.9-7.1-16.3-7.1c-6.3 0-11.7 2.4-16.2 7.2s-6.8 11.1-6.8 18.9c0 7.9 2.3 14.2 6.8 19 4.5 4.8 10 7.2 16.3 7.2m-2.2 12.4c-9.3 0-17.4-3.7-24.2-11.1-6.7-7.4-10.1-16.5-10.1-27.5 0-10.9 3.4-20.1 10.2-27.4 6.8-7.4 14.9-11.1 24.2-11.1 5.5 0 10.5 1.2 14.8 3.5 4.4 2.34 7.6 5.3 9.8 8.83h.6l-.6-10v-33h13.5v105.6h-12.9v-10h-.6c-2.1 3.56-5.4 6.5-9.8 8.87-4.4 2.38-9.3 3.56-14.8 3.56m103.2-47.2c-.3-4.2-2.2-8.1-5.7-11.8-3.5-3.8-8.7-5.6-15.5-5.6-5 0-9.3 1.5-13 4.7-3.7 3.1-6.2 7.4-7.6 12.7h41.9zm-19.4 47.2c-10.9 0-19.8-3.7-26.6-11s-10.3-16.5-10.3-27.6c0-10.5 3.3-19.5 10-27.1 6.6-7.6 15.1-11.4 25.4-11.4 10.7 0 19.3 3.5 25.8 10.5 6.4 7 9.7 16.3 9.7 28l-.1 2.5h-57.1c.4 7.3 2.9 13 7.3 17.3 4.5 4.2 9.7 6.3 15.7 6.3 9.8 0 16.4-4.2 19.8-12.4l12.1 5c-2.4 5.6-6.2 10.3-11.6 14.1-5.4 3.7-12 5.6-19.9 5.6m76.6-12.4c6.4 0 11.9-2.4 16.3-7.1 4.5-4.76 6.7-11.1 6.7-19.07 0-8-2.2-14.3-6.7-19-4.4-4.8-9.9-7.1-16.3-7.1-6.3 0-11.7 2.4-16.2 7.1-4.5 4.8-6.8 11.1-6.8 18.93 0 7.9 2.3 14.2 6.8 18.97s9.9 7.16 16.2 7.16m-2.2 12.4c-9.3 0-17.4-3.7-24.2-11.1-6.7-7.36-10.1-16.5-10.1-27.4 0-10.9 3.4-20.06 10.2-27.4 6.8-7.4 14.8-11.07 24.2-11.07 5.5 0 10.4 1.2 14.8 3.52s7.6 5.3 9.8 8.82h.6l-.6-10v-33h13.6v105.6h-13v-10.1h-.6c-2.1 3.53-5.4 6.5-9.8 8.84-4.3 2.34-9.3 3.5-14.8 3.5"/>
  <path d="M1220.1 249.67v.3l-20.63 23.8 22 31.08v.3h-8.75l-18.05-25.87-8.53 9.84v16.04H1179v-55.5h7.14v28.6h.3l24.42-28.6h9.23zm37.62 55.5h-6.82v-5.28h-.3q-1.64 2.7-4.97 4.6-3.34 1.8-7.06 1.8-7.13 0-10.85-4.4-3.64-4.4-3.64-11.6v-23.2h7.13v22q0 10.6 9.4 10.6 4.4 0 7.2-3.6t2.8-8.2V267h7.2v38zm20.3 1.23q-6.04 0-10.14-3.5-4.03-3.47-4.03-9.2 0-6.2 4.8-9.7 4.8-3.56 11.86-3.56 6.3 0 10.4 2.32v-1.08q0-4.2-2.8-6.67-2.8-2.5-7-2.5-3.1 0-5.6 1.5-2.5 1.5-3.4 4.1l-6.5-2.8q1.3-3.4 5.2-6.2 3.9-2.9 10.2-2.9 7.3 0 12.1 4.3t4.8 12.1v22.9h-6.8V300h-.3q-4.3 6.5-12.5 6.5zm1.17-6.5q4.4 0 7.9-3.26 3.6-3.34 3.6-7.83-3.1-2.4-9.1-2.4-5.2 0-7.9 2.3-2.6 2.3-2.6 5.3 0 2.8 2.4 4.4 2.4 1.7 5.5 1.7zm33.6 5.26h-7.2v-55.5h7.1v55.5zm20.1 1.24q-6.1 0-10.2-3.5-4.1-3.47-4.1-9.2 0-6.2 4.8-9.7 4.8-3.56 11.8-3.56 6.2 0 10.3 2.32v-1.08q0-4.2-2.9-6.67-2.9-2.5-7.1-2.5-3.1 0-5.7 1.5-2.5 1.5-3.4 4.1l-6.5-2.8q1.3-3.4 5.14-6.2 3.9-2.9 10.26-2.9 7.25 0 12.06 4.3 4.8 4.3 4.8 12.1v22.9h-6.8V300h-.3q-4.27 6.5-12.48 6.5zm1.1-6.5q4.4 0 8-3.26 3.6-3.34 3.6-7.83-3-2.4-9.1-2.4-5.2 0-7.9 2.3t-2.7 5.3q0 2.8 2.4 4.4 2.4 1.7 5.5 1.7zm44.8 5.26v-55.5h7.1v48.68h24v6.82h-31.2zm69.9 0h-6.8v-5.27h-.3q-1.7 2.7-5 4.6-3.4 1.8-7.1 1.8-7.2 0-10.9-4.4t-3.7-11.6v-23.2h7.2v22q0 10.6 9.35 10.6 4.4 0 7.2-3.6t2.8-8.2V267h7.1v38zm8.7 0v-37.98h6.8v5.27h.3q1.6-2.7 4.9-4.57 3.4-1.94 6.76-1.94 8.84 0 12 7.3 4.66-7.3 13.27-7.3 6.75 0 10.16 4.34 3.4 4.27 3.4 11.63v23.3h-7.1V283q0-5.74-2.1-8.14-2.1-2.4-6.3-2.4-4.2 0-7 3.56-2.7 3.56-2.7 8.14v21h-7.1V283q0-5.74-2.1-8.14-2.1-2.4-6.4-2.4-4.2 0-7 3.56-2.7 3.56-2.7 8.14v21h-7.17zm85.7 1.24q-4.38 0-7.87-1.86-3.4-1.86-5.1-4.65h-.3l.3 5.2v16.7H1523v-54.7h6.8v5.2h.3q1.7-2.8 5.13-4.7 3.5-1.9 7.8-1.9 7.37 0 12.72 5.8 5.3 5.8 5.3 14.4t-5.3 14.4q-5.35 5.8-12.7 5.8zm-1.2-6.5q4.96 0 8.53-3.73 3.55-3.8 3.55-10t-3.6-9.92q-3.56-3.8-8.5-3.8-5.05 0-8.6 3.72-3.5 3.72-3.5 10 0 6.28 3.5 10 3.55 3.72 8.6 3.72zm58.63 5.26h-6.8v-5.27h-.3q-1.64 2.7-4.97 4.6-3.33 1.8-7.05 1.8-7.1 0-10.85-4.4-3.66-4.4-3.66-11.6v-23.2h7.14v22q0 10.6 9.4 10.6 4.5 0 7.2-3.6 2.8-3.6 2.8-8.2V267h7.2v38zm15.87 0h-7.1v-37.98h6.84v6.2h.3q1.1-3.1 4.5-5.1 3.4-2.02 6.6-2.02 3.13 0 5.3.93l-2.7 6.6q-1.4-.6-3.8-.6-3.9 0-6.9 3.1-2.98 3-2.98 8V305z" style="-inkscape-font-specification:ProductSans-Regular" font-size="62" font-family="Product Sans" fill="#bdbdbd"/>
</svg>
